<?xml version="1.0" encoding="utf-8"?>
<!-- Generator: Adobe Illustrator 24.0.1, SVG Export Plug-In . SVG Version: 6.00 Build 0)  -->
<svg version="1.1" id="Layer_1" xmlns="http://www.w3.org/2000/svg" xmlns:xlink="http://www.w3.org/1999/xlink" x="0px" y="0px"
	 viewBox="0 0 1109 1109" style="enable-background:new 0 0 1109 1109;" xml:space="preserve">
<style type="text/css">
	.st0{fill:#FFFFFF;}
</style>
<path d="M934.4,1109H174.6C78.17,1109,0,1030.83,0,934.4V174.6C0,78.17,78.17,0,174.6,0H934.4c96.43,0,174.6,78.17,174.6,174.6
	V934.4C1109,1030.83,1030.83,1109,934.4,1109z"/>
<g>
	<path class="st0" d="M389.65,1025.81c-42.52,0-71.89-8.31-88.12-24.92c-16.23-16.64-24.73-38.08-25.5-64.36
		c0-22.41,4.44-49.27,13.33-80.58s17.97-61.27,27.25-89.86c18.55-54.88,37.88-108.98,57.97-162.33s40.39-104.75,60.88-154.22
		s40.2-96.61,59.14-141.45c18.94-44.83,36.52-86.19,52.75-124.06c-52.56,0.78-97.98,2.33-136.23,4.64
		c-38.27,2.31-73.25,5.22-104.94,8.69c-31.69,3.48-64.55,8.31-98.55,14.5c3.86-32.47,19.12-57.39,45.8-74.78
		c26.66-17.39,62.41-29.56,107.25-36.53c44.83-6.95,96.23-10.44,154.22-10.44c30.14,0,58.55,0.58,85.22,1.73
		c26.66,1.16,52.17,2.91,76.52,5.22c24.34,2.33,48.12,4.64,71.31,6.95c48.69,4.66,87.53,7.75,116.53,9.28
		c28.98,1.55,49.66,2.31,62.03,2.31c-23.19,21.66-52.38,37.31-87.55,46.97s-72.08,15.66-110.73,17.97
		c-38.66,2.33-75.36,3.48-110.14,3.48c-37.11,91.22-71.12,185.91-102.03,284.08c-30.92,98.17-59.52,195.17-85.8,291.02
		c-10.06,37.11-18.38,68.61-24.94,94.5c-6.58,25.91-11.41,49.48-14.5,70.73s-4.62,43.86-4.62,67.83c0,3.86,0.19,8.3,0.58,13.34
		C387.14,1010.54,388.11,1017.31,389.65,1025.81z"/>
</g>
</svg>
